# xmcd CD database file
#
# Track frame offsets:
#	150
#	16360
#	40752
#	67077
#	90800
#	122797
#	137012
#	156110
#	172440
#	196147
#	217595
#
# Disc length: 3259 seconds
#
# Revision: 0
# Processed by: cddbd v1.5.1PL0 Copyright (c) Steve Scherf et al.
# Submitted via: NeoAudio 9.9.9
#
DISCID=8f0cb90b
DTITLE=London All-Star Steel Orchestra - Latin Steel
DYEAR=1900
DGENRE=Salsa
TTITLE0=Lambada
TTITLE1=Say si si
TTITLE2=Silencio
TTITLE3=Cielito Lindo
TTITLE4=Nobody's Business
TTITLE5=El Cumbanachero
TTITLE6=Francilia Teresa
TTITLE7=Quando Quando
TTITLE8=Guantanamera
TTITLE9=Malditos Selos
TTITLE10=Adios
EXTD=
EXTT0=
EXTT1=
EXTT2=
EXTT3=
EXTT4=
EXTT5=
EXTT6=
EXTT7=
EXTT8=
EXTT9=
EXTT10=
PLAYORDER=
